<svg xmlns="http://www.w3.org/2000/svg" xmlns:xlink="http://www.w3.org/1999/xlink" width="500" zoomAndPan="magnify" viewBox="0 0 375 374.999991" height="500" preserveAspectRatio="xMidYMid meet" version="1.0"><defs><g/><clipPath id="a3fbac2785"><path d="M 112.34375 55 L 262.65625 55 L 262.65625 205.308594 L 112.34375 205.308594 Z M 112.34375 55 " clip-rule="nonzero"/></clipPath><clipPath id="e07d8a1feb"><path d="M 187.5 55 C 145.992188 55 112.34375 88.648438 112.34375 130.152344 C 112.34375 171.660156 145.992188 205.308594 187.5 205.308594 C 229.007812 205.308594 262.65625 171.660156 262.65625 130.152344 C 262.65625 88.648438 229.007812 55 187.5 55 Z M 187.5 55 " clip-rule="nonzero"/></clipPath><clipPath id="894e148903"><path d="M 108.980469 63.816406 L 266 63.816406 L 266 213.226562 L 108.980469 213.226562 Z M 108.980469 63.816406 " clip-rule="nonzero"/></clipPath><clipPath id="1a3c4cb8c8"><path d="M 187.5 63.816406 C 144.132812 63.816406 108.980469 97.261719 108.980469 138.523438 C 108.980469 179.78125 144.132812 213.226562 187.5 213.226562 C 230.867188 213.226562 266.019531 179.78125 266.019531 138.523438 C 266.019531 97.261719 230.867188 63.816406 187.5 63.816406 Z M 187.5 63.816406 " clip-rule="nonzero"/></clipPath><clipPath id="175d0772de"><path d="M 97 119 L 186 119 L 186 230.558594 L 97 230.558594 Z M 97 119 " clip-rule="nonzero"/></clipPath><clipPath id="f0b3cb1b21"><path d="M 189 119 L 278 119 L 278 230.558594 L 189 230.558594 Z M 189 119 " clip-rule="nonzero"/></clipPath><clipPath id="afdf35c2e5"><path d="M 155 103.808594 L 176 103.808594 L 176 125 L 155 125 Z M 155 103.808594 " clip-rule="nonzero"/></clipPath><clipPath id="2a424b1893"><path d="M 199 103.808594 L 231 103.808594 L 231 128 L 199 128 Z M 199 103.808594 " clip-rule="nonzero"/></clipPath></defs><g clip-path="url(#a3fbac2785)"><g clip-path="url(#e07d8a1feb)"><path fill="#f2ede6" d="M 112.34375 55 L 262.65625 55 L 262.65625 205.308594 L 112.34375 205.308594 Z M 112.34375 55 " fill-opacity="1" fill-rule="nonzero"/></g></g><g clip-path="url(#894e148903)"><g clip-path="url(#1a3c4cb8c8)"><path fill="#1d1b1e" d="M 108.980469 63.816406 L 265.980469 63.816406 L 265.980469 213.226562 L 108.980469 213.226562 Z M 108.980469 63.816406 " fill-opacity="1" fill-rule="nonzero"/></g></g><g clip-path="url(#175d0772de)"><path fill="#f2ede6" d="M 185.714844 209.632812 L 185.714844 209.710938 C 185.714844 215.921875 184.628906 222.21875 182.902344 228.5625 C 182.457031 230.183594 181.335938 230.253906 179.84375 229.917969 C 178.632812 229.644531 177.421875 229.355469 176.222656 229.039062 C 173.621094 228.363281 171.035156 227.585938 168.496094 226.71875 C 166.328125 225.988281 164.179688 225.1875 162.054688 224.320312 C 159.441406 223.25 156.859375 222.089844 154.320312 220.835938 C 153.515625 220.445312 152.710938 220.039062 151.917969 219.625 C 132.46875 209.527344 117.144531 195.25 107.449219 175.355469 C 99.585938 159.207031 96.878906 142.003906 97.214844 124.207031 C 97.253906 122.441406 96.785156 120.34375 99.03125 119.5 C 101.210938 118.683594 103.074219 119.644531 104.445312 121.140625 C 105.710938 122.53125 106.867188 124.222656 107.621094 125.914062 C 108.796875 128.523438 109.757812 131.285156 110.382812 134.074219 C 112.816406 145.019531 117.222656 154.988281 124.535156 163.570312 C 127.144531 166.640625 129.996094 169.382812 133.175781 171.714844 C 134.339844 172.574219 135.546875 173.378906 136.796875 174.113281 C 139 175.417969 141.355469 176.539062 143.875 177.453125 C 143.433594 176.683594 142.988281 175.917969 142.5625 175.132812 C 141.613281 173.402344 140.691406 171.660156 139.832031 169.894531 C 138.644531 167.460938 137.5625 164.984375 136.660156 162.429688 C 135.925781 160.328125 135.308594 158.1875 134.851562 155.972656 C 133.976562 151.734375 133.675781 147.507812 135.9375 143.546875 C 137.355469 141.066406 138.449219 141.0625 140.058594 143.347656 C 140.988281 144.675781 141.921875 146.011719 142.863281 147.324219 C 143.515625 148.226562 144.175781 149.121094 144.851562 150.007812 C 145.851562 151.308594 146.890625 152.566406 147.96875 153.789062 C 149.808594 155.902344 151.753906 157.917969 153.769531 159.867188 C 157.949219 163.925781 162.394531 167.71875 166.761719 171.589844 C 169.5625 174.070312 172.222656 176.671875 174.609375 179.507812 C 175.878906 181.015625 177.074219 182.589844 178.171875 184.25 C 178.632812 184.953125 179.082031 185.664062 179.507812 186.394531 C 180.675781 188.390625 181.65625 190.394531 182.46875 192.421875 C 184.742188 198.066406 185.710938 203.8125 185.714844 209.632812 " fill-opacity="1" fill-rule="nonzero"/></g><g clip-path="url(#f0b3cb1b21)"><path fill="#f2ede6" d="M 267.53125 175.355469 C 257.84375 195.25 242.511719 209.527344 223.070312 219.625 C 221.945312 220.207031 220.808594 220.777344 219.671875 221.324219 C 217.3125 222.457031 214.925781 223.511719 212.507812 224.484375 C 210.5 225.296875 208.464844 226.054688 206.410156 226.746094 C 204.230469 227.488281 202.023438 228.160156 199.789062 228.761719 C 198.253906 229.183594 196.703125 229.566406 195.136719 229.917969 C 193.644531 230.253906 192.523438 230.183594 192.085938 228.5625 C 188.726562 216.253906 187.804688 204.132812 192.496094 192.457031 C 193.316406 190.417969 194.300781 188.402344 195.476562 186.394531 C 195.867188 185.722656 196.277344 185.066406 196.699219 184.425781 C 197.789062 182.75 198.984375 181.164062 200.261719 179.644531 C 202.675781 176.753906 205.371094 174.113281 208.21875 171.589844 C 213.417969 166.984375 218.726562 162.484375 223.570312 157.515625 C 224.773438 156.28125 225.957031 155.011719 227.089844 153.703125 C 228.140625 152.507812 229.15625 151.277344 230.128906 150.007812 C 230.71875 149.246094 231.285156 148.476562 231.851562 147.699219 L 231.851562 147.691406 C 232.894531 146.253906 233.910156 144.800781 234.933594 143.347656 C 236.539062 141.0625 237.625 141.066406 239.046875 143.546875 C 241.3125 147.507812 241.011719 151.734375 240.132812 155.972656 C 239.664062 158.261719 239.015625 160.488281 238.246094 162.664062 C 237.378906 165.078125 236.355469 167.429688 235.230469 169.738281 C 234.34375 171.5625 233.402344 173.351562 232.421875 175.132812 C 231.992188 175.917969 231.546875 176.683594 231.109375 177.453125 C 233.652344 176.535156 236.011719 175.40625 238.226562 174.089844 C 239.464844 173.351562 240.667969 172.5625 241.816406 171.714844 C 244.992188 169.375 247.84375 166.632812 250.453125 163.570312 C 257.761719 154.988281 262.164062 145.019531 264.605469 134.074219 C 265.230469 131.285156 266.191406 128.523438 267.359375 125.914062 C 268.113281 124.222656 269.273438 122.53125 270.542969 121.140625 C 271.90625 119.644531 273.777344 118.683594 275.949219 119.5 C 278.199219 120.34375 277.738281 122.441406 277.773438 124.207031 C 278.109375 142.003906 275.398438 159.207031 267.53125 175.355469 " fill-opacity="1" fill-rule="nonzero"/></g><path fill="#a37a41" d="M 210.65625 139.394531 C 205.417969 145.441406 199.667969 150.078125 196.742188 151.507812 L 196.742188 178.378906 C 195.097656 180.429688 193.683594 182.488281 192.441406 184.597656 C 191.605469 186.027344 190.851562 187.476562 190.167969 188.941406 L 189.6875 185.984375 L 189.117188 182.484375 L 187.480469 172.363281 L 185.832031 182.484375 L 184.816406 188.761719 C 184.15625 187.355469 183.425781 185.96875 182.625 184.597656 C 181.359375 182.441406 179.90625 180.332031 178.214844 178.238281 L 178.214844 151.449219 C 177.769531 151.230469 177.269531 150.9375 176.710938 150.589844 C 173.570312 148.578125 168.8125 144.46875 164.414062 139.394531 C 163.640625 138.496094 163.855469 137.089844 164.910156 136.472656 C 165.71875 136.003906 166.746094 136.265625 167.378906 136.960938 C 171.28125 141.222656 175.695312 143.214844 178.613281 144.136719 L 180.925781 143.1875 C 180.957031 143.175781 180.980469 143.167969 181.011719 143.15625 C 181.941406 142.785156 182.984375 142.777344 183.925781 143.132812 C 184.589844 143.386719 185.289062 143.578125 186.015625 143.679688 C 186.507812 143.757812 187.015625 143.796875 187.535156 143.796875 C 187.878906 143.796875 188.214844 143.78125 188.546875 143.746094 C 189.425781 143.660156 190.28125 143.460938 191.082031 143.15625 C 192.027344 142.804688 193.078125 142.792969 194.011719 143.179688 C 194.015625 143.1875 194.023438 143.1875 194.027344 143.1875 L 196.398438 144.15625 C 199.308594 143.246094 203.785156 141.246094 207.726562 136.921875 C 208.28125 136.3125 209.148438 136.03125 209.90625 136.347656 C 211.183594 136.875 211.492188 138.429688 210.65625 139.394531 " fill-opacity="1" fill-rule="nonzero"/><path fill="#a37a41" d="M 194.105469 133.671875 C 194.105469 135.726562 193.160156 137.566406 191.675781 138.765625 C 191.238281 139.121094 190.75 139.425781 190.226562 139.664062 C 189.410156 140.03125 188.496094 140.238281 187.53125 140.238281 C 186.285156 140.238281 185.121094 139.886719 184.128906 139.289062 C 183.863281 139.128906 183.609375 138.945312 183.371094 138.75 C 181.90625 137.542969 180.96875 135.722656 180.96875 133.671875 C 180.96875 133.507812 180.972656 133.339844 180.984375 133.175781 C 181.242188 129.777344 184.078125 127.101562 187.53125 127.101562 C 190.851562 127.101562 193.597656 129.566406 194.039062 132.765625 C 194.078125 133.0625 194.105469 133.363281 194.105469 133.671875 " fill-opacity="1" fill-rule="nonzero"/><path fill="#a37a41" d="M 194.105469 133.671875 C 194.105469 135.726562 193.160156 137.566406 191.675781 138.765625 C 191.238281 139.121094 190.75 139.425781 190.226562 139.664062 C 189.410156 140.03125 188.496094 140.238281 187.53125 140.238281 C 186.285156 140.238281 185.121094 139.886719 184.128906 139.289062 C 183.863281 139.128906 183.609375 138.945312 183.371094 138.75 C 181.90625 137.542969 180.96875 135.722656 180.96875 133.671875 C 180.96875 133.507812 180.972656 133.339844 180.984375 133.175781 C 181.242188 129.777344 184.078125 127.101562 187.53125 127.101562 C 190.851562 127.101562 193.597656 129.566406 194.039062 132.765625 C 194.078125 133.0625 194.105469 133.363281 194.105469 133.671875 " fill-opacity="1" fill-rule="nonzero"/><g clip-path="url(#afdf35c2e5)"><path fill="#a37a41" d="M 165.449219 124.449219 C 171.128906 124.449219 175.734375 119.84375 175.734375 114.164062 C 175.734375 108.484375 171.128906 103.882812 165.449219 103.882812 C 159.769531 103.882812 155.164062 108.484375 155.164062 114.164062 C 155.164062 119.84375 159.769531 124.449219 165.449219 124.449219 " fill-opacity="1" fill-rule="nonzero"/></g><path fill="#a37a41" d="M 179.070312 139.222656 C 178.019531 137.625 177.40625 135.71875 177.40625 133.671875 C 177.40625 132.453125 177.621094 131.289062 178.019531 130.210938 C 176.648438 129.152344 175.105469 128.335938 173.414062 127.769531 C 171.714844 127.207031 169.933594 126.960938 168.144531 126.960938 L 162.589844 126.960938 C 159.878906 126.960938 157.207031 127.664062 154.835938 128.992188 L 153.894531 129.527344 C 150.792969 131.265625 148.378906 134.007812 147.027344 137.296875 L 144.511719 143.429688 C 145.554688 144.914062 146.628906 146.414062 147.71875 147.839844 C 148.378906 148.699219 149.054688 149.539062 149.746094 150.359375 L 152.476562 144.953125 C 152.59375 144.710938 152.84375 144.558594 153.117188 144.558594 L 153.140625 144.558594 C 153.539062 144.558594 153.859375 144.882812 153.859375 145.28125 L 153.828125 154.855469 C 157.683594 158.828125 161.882812 162.519531 166.246094 166.347656 C 167.21875 167.210938 168.195312 168.066406 169.167969 168.925781 C 171.1875 170.710938 173.007812 172.457031 174.652344 174.183594 L 174.652344 153.496094 C 170.882812 151.050781 165.878906 146.527344 161.722656 141.726562 C 160.65625 140.492188 160.191406 138.859375 160.464844 137.246094 C 160.734375 135.625 161.699219 134.222656 163.117188 133.398438 C 163.929688 132.921875 164.859375 132.671875 165.800781 132.671875 C 167.378906 132.671875 168.914062 133.363281 170.003906 134.550781 C 172.757812 137.570312 175.816406 139.277344 178.25 140.238281 C 178.414062 140.300781 178.59375 140.296875 178.761719 140.230469 C 179.027344 140.117188 179.183594 139.863281 179.183594 139.597656 C 179.183594 139.46875 179.148438 139.339844 179.070312 139.222656 Z M 227.144531 136.5625 C 225.519531 132.761719 222.472656 129.753906 218.65625 128.167969 C 216.738281 127.375 214.679688 126.960938 212.601562 126.960938 L 206.761719 126.960938 C 204.046875 126.960938 201.375 127.664062 199.007812 128.992188 L 198.0625 129.527344 C 197.714844 129.722656 197.371094 129.9375 197.035156 130.15625 C 197.445312 131.253906 197.667969 132.4375 197.667969 133.671875 C 197.667969 135.742188 197.035156 137.671875 195.96875 139.28125 C 195.730469 139.625 195.875 140.09375 196.257812 140.253906 C 196.34375 140.289062 196.433594 140.308594 196.519531 140.308594 C 196.597656 140.308594 196.675781 140.296875 196.753906 140.265625 C 199.210938 139.304688 202.304688 137.582031 205.09375 134.519531 C 206.171875 133.335938 207.6875 132.65625 209.25 132.65625 C 209.941406 132.65625 210.625 132.792969 211.265625 133.058594 C 212.902344 133.734375 214.128906 135.160156 214.535156 136.875 C 214.941406 138.585938 214.5 140.394531 213.351562 141.726562 C 209.164062 146.5625 204.113281 151.109375 200.300781 153.5625 L 200.300781 174.308594 C 201.976562 172.539062 203.835938 170.753906 205.898438 168.925781 C 206.875 168.066406 207.847656 167.210938 208.820312 166.347656 C 213.757812 162.015625 218.496094 157.859375 222.746094 153.265625 L 220.953125 144.539062 C 220.882812 144.136719 221.191406 143.769531 221.601562 143.769531 L 221.695312 143.769531 C 221.9375 143.769531 222.164062 143.910156 222.277344 144.128906 L 225.394531 150.269531 C 226.066406 149.472656 226.710938 148.664062 227.347656 147.839844 C 228.339844 146.550781 229.3125 145.203125 230.261719 143.855469 L 227.144531 136.5625 " fill-opacity="1" fill-rule="nonzero"/><g clip-path="url(#2a424b1893)"><path fill="#a37a41" d="M 209.621094 124.449219 C 213.800781 124.449219 217.390625 121.949219 219 118.371094 C 219.410156 118.765625 219.761719 119.144531 220.042969 119.515625 C 220.367188 119.964844 220.59375 120.328125 220.851562 120.71875 C 220.960938 120.917969 221.09375 121.136719 221.183594 121.386719 L 221.242188 121.582031 L 221.273438 121.6875 L 221.308594 121.894531 C 221.359375 122.164062 221.433594 122.429688 221.515625 122.691406 C 221.695312 123.214844 221.941406 123.699219 222.25 124.117188 C 222.5625 124.53125 222.914062 124.882812 223.28125 125.179688 C 224.027344 125.769531 224.832031 126.136719 225.625 126.425781 C 227.230469 126.960938 228.828125 127.175781 230.429688 127.140625 L 230.476562 126.789062 C 229.03125 126.261719 227.617188 125.617188 226.441406 124.792969 C 225.261719 123.984375 224.363281 122.914062 224.363281 122.003906 C 224.363281 121.886719 224.363281 121.773438 224.390625 121.65625 L 224.402344 121.574219 L 224.414062 121.390625 L 224.425781 121.007812 C 224.417969 120.492188 224.367188 119.949219 224.207031 119.425781 C 223.90625 118.371094 223.1875 117.453125 222.351562 116.886719 C 221.53125 116.3125 220.636719 116 219.75 115.875 C 219.84375 115.316406 219.902344 114.75 219.902344 114.164062 C 219.902344 108.484375 215.300781 103.882812 209.621094 103.882812 C 203.941406 103.882812 199.335938 108.484375 199.335938 114.164062 C 199.335938 119.84375 203.941406 124.449219 209.621094 124.449219 " fill-opacity="1" fill-rule="nonzero"/></g><g fill="#f2ede6" fill-opacity="1"><g transform="translate(74.548485, 290.267985)"><g><path d="M 19.8125 -8.015625 L 23.546875 0 L 27.328125 0 L 14.640625 -27.25 L 12.6875 -27.25 L 1.171875 0 L 2.953125 0 L 6.390625 -8.015625 Z M 19 -9.765625 L 7.125 -9.765625 L 12.734375 -22.890625 L 12.890625 -22.890625 Z M 19 -9.765625 "/></g></g></g><g fill="#f2ede6" fill-opacity="1"><g transform="translate(101.476184, 290.267985)"><g><path d="M 15.53125 -15.03125 C 15.53125 -15.726562 15.347656 -16.375 14.984375 -16.96875 C 14.617188 -17.5625 14.117188 -18.070312 13.484375 -18.5 C 12.847656 -18.9375 12.109375 -19.273438 11.265625 -19.515625 C 10.421875 -19.765625 9.519531 -19.890625 8.5625 -19.890625 C 7.65625 -19.890625 6.804688 -19.769531 6.015625 -19.53125 C 5.222656 -19.300781 4.535156 -18.953125 3.953125 -18.484375 C 3.367188 -18.015625 2.90625 -17.4375 2.5625 -16.75 C 2.226562 -16.0625 2.0625 -15.265625 2.0625 -14.359375 C 2.0625 -13.117188 2.347656 -12.132812 2.921875 -11.40625 C 3.492188 -10.675781 4.207031 -10.085938 5.0625 -9.640625 C 5.914062 -9.203125 6.84375 -8.847656 7.84375 -8.578125 C 8.84375 -8.304688 9.769531 -8.007812 10.625 -7.6875 C 11.476562 -7.363281 12.191406 -6.953125 12.765625 -6.453125 C 13.335938 -5.960938 13.625 -5.289062 13.625 -4.4375 C 13.625 -4.070312 13.5625 -3.691406 13.4375 -3.296875 C 13.320312 -2.910156 13.109375 -2.554688 12.796875 -2.234375 C 12.492188 -1.910156 12.066406 -1.640625 11.515625 -1.421875 C 10.972656 -1.203125 10.285156 -1.09375 9.453125 -1.09375 C 8.421875 -1.09375 7.546875 -1.253906 6.828125 -1.578125 C 6.117188 -1.898438 5.535156 -2.285156 5.078125 -2.734375 C 4.617188 -3.191406 4.289062 -3.65625 4.09375 -4.125 C 3.90625 -4.59375 3.8125 -4.984375 3.8125 -5.296875 L 1.28125 -5.296875 C 1.28125 -4.566406 1.445312 -3.859375 1.78125 -3.171875 C 2.125 -2.484375 2.640625 -1.863281 3.328125 -1.3125 C 4.015625 -0.769531 4.859375 -0.335938 5.859375 -0.015625 C 6.859375 0.304688 8.019531 0.46875 9.34375 0.46875 C 11.726562 0.46875 13.523438 -0.0546875 14.734375 -1.109375 C 15.941406 -2.160156 16.546875 -3.539062 16.546875 -5.25 C 16.546875 -6.5 16.253906 -7.5 15.671875 -8.25 C 15.085938 -9 14.351562 -9.601562 13.46875 -10.0625 C 12.582031 -10.519531 11.625 -10.890625 10.59375 -11.171875 C 9.570312 -11.453125 8.617188 -11.75 7.734375 -12.0625 C 6.859375 -12.375 6.128906 -12.75 5.546875 -13.1875 C 4.960938 -13.632812 4.671875 -14.257812 4.671875 -15.0625 C 4.671875 -15.394531 4.734375 -15.75 4.859375 -16.125 C 4.992188 -16.507812 5.21875 -16.863281 5.53125 -17.1875 C 5.84375 -17.507812 6.253906 -17.78125 6.765625 -18 C 7.285156 -18.21875 7.9375 -18.328125 8.71875 -18.328125 C 9.5 -18.328125 10.171875 -18.21875 10.734375 -18 C 11.304688 -17.78125 11.785156 -17.507812 12.171875 -17.1875 C 12.566406 -16.863281 12.851562 -16.503906 13.03125 -16.109375 C 13.21875 -15.722656 13.3125 -15.363281 13.3125 -15.03125 Z M 15.53125 -15.03125 "/></g></g></g><g fill="#f2ede6" fill-opacity="1"><g transform="translate(118.597526, 290.267985)"><g><path d="M 15.53125 -15.03125 C 15.53125 -15.726562 15.347656 -16.375 14.984375 -16.96875 C 14.617188 -17.5625 14.117188 -18.070312 13.484375 -18.5 C 12.847656 -18.9375 12.109375 -19.273438 11.265625 -19.515625 C 10.421875 -19.765625 9.519531 -19.890625 8.5625 -19.890625 C 7.65625 -19.890625 6.804688 -19.769531 6.015625 -19.53125 C 5.222656 -19.300781 4.535156 -18.953125 3.953125 -18.484375 C 3.367188 -18.015625 2.90625 -17.4375 2.5625 -16.75 C 2.226562 -16.0625 2.0625 -15.265625 2.0625 -14.359375 C 2.0625 -13.117188 2.347656 -12.132812 2.921875 -11.40625 C 3.492188 -10.675781 4.207031 -10.085938 5.0625 -9.640625 C 5.914062 -9.203125 6.84375 -8.847656 7.84375 -8.578125 C 8.84375 -8.304688 9.769531 -8.007812 10.625 -7.6875 C 11.476562 -7.363281 12.191406 -6.953125 12.765625 -6.453125 C 13.335938 -5.960938 13.625 -5.289062 13.625 -4.4375 C 13.625 -4.070312 13.5625 -3.691406 13.4375 -3.296875 C 13.320312 -2.910156 13.109375 -2.554688 12.796875 -2.234375 C 12.492188 -1.910156 12.066406 -1.640625 11.515625 -1.421875 C 10.972656 -1.203125 10.285156 -1.09375 9.453125 -1.09375 C 8.421875 -1.09375 7.546875 -1.253906 6.828125 -1.578125 C 6.117188 -1.898438 5.535156 -2.285156 5.078125 -2.734375 C 4.617188 -3.191406 4.289062 -3.65625 4.09375 -4.125 C 3.90625 -4.59375 3.8125 -4.984375 3.8125 -5.296875 L 1.28125 -5.296875 C 1.28125 -4.566406 1.445312 -3.859375 1.78125 -3.171875 C 2.125 -2.484375 2.640625 -1.863281 3.328125 -1.3125 C 4.015625 -0.769531 4.859375 -0.335938 5.859375 -0.015625 C 6.859375 0.304688 8.019531 0.46875 9.34375 0.46875 C 11.726562 0.46875 13.523438 -0.0546875 14.734375 -1.109375 C 15.941406 -2.160156 16.546875 -3.539062 16.546875 -5.25 C 16.546875 -6.5 16.253906 -7.5 15.671875 -8.25 C 15.085938 -9 14.351562 -9.601562 13.46875 -10.0625 C 12.582031 -10.519531 11.625 -10.890625 10.59375 -11.171875 C 9.570312 -11.453125 8.617188 -11.75 7.734375 -12.0625 C 6.859375 -12.375 6.128906 -12.75 5.546875 -13.1875 C 4.960938 -13.632812 4.671875 -14.257812 4.671875 -15.0625 C 4.671875 -15.394531 4.734375 -15.75 4.859375 -16.125 C 4.992188 -16.507812 5.21875 -16.863281 5.53125 -17.1875 C 5.84375 -17.507812 6.253906 -17.78125 6.765625 -18 C 7.285156 -18.21875 7.9375 -18.328125 8.71875 -18.328125 C 9.5 -18.328125 10.171875 -18.21875 10.734375 -18 C 11.304688 -17.78125 11.785156 -17.507812 12.171875 -17.1875 C 12.566406 -16.863281 12.851562 -16.503906 13.03125 -16.109375 C 13.21875 -15.722656 13.3125 -15.363281 13.3125 -15.03125 Z M 15.53125 -15.03125 "/></g></g></g><g fill="#f2ede6" fill-opacity="1"><g transform="translate(135.718868, 290.267985)"><g><path d="M 3.109375 -19.453125 L 3.109375 -6.8125 C 3.109375 -6.34375 3.15625 -5.695312 3.25 -4.875 C 3.34375 -4.0625 3.609375 -3.257812 4.046875 -2.46875 C 4.484375 -1.675781 5.175781 -0.988281 6.125 -0.40625 C 7.070312 0.175781 8.40625 0.46875 10.125 0.46875 C 10.875 0.488281 11.695312 0.335938 12.59375 0.015625 C 13.488281 -0.304688 14.390625 -0.921875 15.296875 -1.828125 L 15.921875 -2.453125 L 16.078125 -2.453125 L 16.078125 0 L 19.390625 0 L 19.390625 -19.453125 L 16.078125 -19.453125 L 16.078125 -7.390625 C 16.078125 -6.378906 15.929688 -5.507812 15.640625 -4.78125 C 15.359375 -4.0625 14.984375 -3.457031 14.515625 -2.96875 C 14.046875 -2.488281 13.5 -2.132812 12.875 -1.90625 C 12.257812 -1.675781 11.613281 -1.5625 10.9375 -1.5625 C 9.84375 -1.5625 8.988281 -1.773438 8.375 -2.203125 C 7.769531 -2.628906 7.316406 -3.125 7.015625 -3.6875 C 6.722656 -4.257812 6.550781 -4.828125 6.5 -5.390625 C 6.445312 -5.953125 6.421875 -6.359375 6.421875 -6.609375 L 6.421875 -19.453125 Z M 3.109375 -19.453125 "/></g></g></g><g fill="#f2ede6" fill-opacity="1"><g transform="translate(156.77054, 290.267985)"><g><path d="M 3.109375 -19.453125 L 3.109375 0 L 6.421875 0 L 6.421875 -11.75 C 6.421875 -12.8125 6.539062 -13.710938 6.78125 -14.453125 C 7.03125 -15.191406 7.347656 -15.796875 7.734375 -16.265625 C 8.128906 -16.734375 8.5625 -17.070312 9.03125 -17.28125 C 9.5 -17.488281 9.953125 -17.59375 10.390625 -17.59375 C 10.984375 -17.59375 11.535156 -17.394531 12.046875 -17 C 12.554688 -16.613281 12.925781 -16.253906 13.15625 -15.921875 L 14.484375 -18.328125 C 14.242188 -18.640625 13.960938 -18.898438 13.640625 -19.109375 C 13.316406 -19.316406 12.992188 -19.476562 12.671875 -19.59375 C 12.347656 -19.707031 12.046875 -19.785156 11.765625 -19.828125 C 11.492188 -19.867188 11.296875 -19.890625 11.171875 -19.890625 C 10.078125 -19.890625 9.164062 -19.585938 8.4375 -18.984375 C 7.71875 -18.390625 7.125 -17.507812 6.65625 -16.34375 L 6.421875 -16.34375 L 6.421875 -19.453125 Z M 3.109375 -19.453125 "/></g></g></g><g fill="#f2ede6" fill-opacity="1"><g transform="translate(170.078303, 290.267985)"><g><path d="M 5.640625 -27.953125 L 1.953125 -27.953125 L 1.953125 -17.90625 L 3.34375 -17.90625 Z M 5.640625 -27.953125 "/></g></g></g><g fill="#f2ede6" fill-opacity="1"><g transform="translate(176.109115, 290.267985)"><g><path d="M 19.8125 -8.015625 L 23.546875 0 L 27.328125 0 L 14.640625 -27.25 L 12.6875 -27.25 L 1.171875 0 L 2.953125 0 L 6.390625 -8.015625 Z M 19 -9.765625 L 7.125 -9.765625 L 12.734375 -22.890625 L 12.890625 -22.890625 Z M 19 -9.765625 "/></g></g></g><g fill="#f2ede6" fill-opacity="1"><g transform="translate(203.03681, 290.267985)"><g><path d="M 4.359375 -19.453125 L 4.359375 0 L 7.671875 0 L 7.671875 -19.453125 Z M 3.890625 -25.609375 C 3.890625 -25.035156 4.097656 -24.539062 4.515625 -24.125 C 4.929688 -23.71875 5.425781 -23.515625 6 -23.515625 C 6.5625 -23.515625 7.050781 -23.71875 7.46875 -24.125 C 7.882812 -24.539062 8.09375 -25.035156 8.09375 -25.609375 C 8.09375 -26.179688 7.882812 -26.675781 7.46875 -27.09375 C 7.050781 -27.507812 6.5625 -27.71875 6 -27.71875 C 5.425781 -27.71875 4.929688 -27.507812 4.515625 -27.09375 C 4.097656 -26.675781 3.890625 -26.179688 3.890625 -25.609375 Z M 3.890625 -25.609375 "/></g></g></g><g fill="#f2ede6" fill-opacity="1"><g transform="translate(213.464921, 290.267985)"><g><path d="M 6.421875 0 L 6.421875 -11.09375 C 6.421875 -11.5625 6.457031 -12.175781 6.53125 -12.9375 C 6.613281 -13.707031 6.816406 -14.460938 7.140625 -15.203125 C 7.460938 -15.941406 7.960938 -16.578125 8.640625 -17.109375 C 9.316406 -17.640625 10.265625 -17.90625 11.484375 -17.90625 C 12.367188 -17.90625 13.050781 -17.707031 13.53125 -17.3125 C 14.007812 -16.925781 14.363281 -16.445312 14.59375 -15.875 C 14.832031 -15.3125 14.96875 -14.71875 15 -14.09375 C 15.039062 -13.46875 15.0625 -12.921875 15.0625 -12.453125 L 15.0625 0 L 18.375 0 L 18.375 -11.09375 C 18.375 -11.664062 18.425781 -12.347656 18.53125 -13.140625 C 18.632812 -13.929688 18.851562 -14.675781 19.1875 -15.375 C 19.519531 -16.070312 20.003906 -16.664062 20.640625 -17.15625 C 21.285156 -17.65625 22.148438 -17.90625 23.234375 -17.90625 C 24.035156 -17.90625 24.679688 -17.785156 25.171875 -17.546875 C 25.671875 -17.316406 26.054688 -16.96875 26.328125 -16.5 C 26.597656 -16.03125 26.78125 -15.457031 26.875 -14.78125 C 26.96875 -14.113281 27.015625 -13.335938 27.015625 -12.453125 L 27.015625 0 L 30.3125 0 L 30.3125 -13.578125 C 30.3125 -14.179688 30.25 -14.851562 30.125 -15.59375 C 30 -16.332031 29.71875 -17.019531 29.28125 -17.65625 C 28.851562 -18.289062 28.226562 -18.820312 27.40625 -19.25 C 26.59375 -19.675781 25.515625 -19.890625 24.171875 -19.890625 C 23.785156 -19.890625 23.332031 -19.847656 22.8125 -19.765625 C 22.289062 -19.691406 21.742188 -19.523438 21.171875 -19.265625 C 20.597656 -19.003906 20.046875 -18.625 19.515625 -18.125 C 18.984375 -17.632812 18.523438 -16.988281 18.140625 -16.1875 L 17.859375 -16.1875 C 17.703125 -16.601562 17.484375 -17.023438 17.203125 -17.453125 C 16.921875 -17.878906 16.554688 -18.273438 16.109375 -18.640625 C 15.671875 -19.003906 15.144531 -19.300781 14.53125 -19.53125 C 13.925781 -19.769531 13.195312 -19.890625 12.34375 -19.890625 C 11.945312 -19.890625 11.476562 -19.84375 10.9375 -19.75 C 10.394531 -19.65625 9.847656 -19.476562 9.296875 -19.21875 C 8.753906 -18.96875 8.242188 -18.609375 7.765625 -18.140625 C 7.285156 -17.671875 6.890625 -17.0625 6.578125 -16.3125 L 6.421875 -16.3125 L 6.421875 -19.453125 L 3.109375 -19.453125 L 3.109375 0 Z M 6.421875 0 "/></g></g></g><g fill="#f2ede6" fill-opacity="1"><g transform="translate(245.334705, 290.267985)"><g><path d="M 10.28125 -19.890625 C 12.164062 -19.890625 13.628906 -19.625 14.671875 -19.09375 C 15.710938 -18.5625 16.472656 -17.863281 16.953125 -17 C 17.429688 -16.144531 17.707031 -15.160156 17.78125 -14.046875 C 17.863281 -12.929688 17.90625 -11.789062 17.90625 -10.625 L 17.90625 0 L 14.75 0 L 14.75 -1.90625 C 14 -1.175781 13.039062 -0.597656 11.875 -0.171875 C 10.707031 0.253906 9.539062 0.46875 8.375 0.46875 C 7.25 0.46875 6.257812 0.273438 5.40625 -0.109375 C 4.550781 -0.503906 3.835938 -1.007812 3.265625 -1.625 C 2.691406 -2.25 2.265625 -2.953125 1.984375 -3.734375 C 1.703125 -4.515625 1.5625 -5.304688 1.5625 -6.109375 C 1.5625 -6.941406 1.710938 -7.769531 2.015625 -8.59375 C 2.328125 -9.425781 2.796875 -10.171875 3.421875 -10.828125 C 4.046875 -11.492188 4.8125 -12.035156 5.71875 -12.453125 C 6.625 -12.867188 7.660156 -13.078125 8.828125 -13.078125 C 10.003906 -13.078125 11.113281 -12.847656 12.15625 -12.390625 C 13.207031 -11.941406 14.070312 -11.300781 14.75 -10.46875 L 14.75 -12.140625 C 14.75 -14.265625 14.429688 -15.847656 13.796875 -16.890625 C 13.160156 -17.929688 12 -18.453125 10.3125 -18.453125 C 9.582031 -18.453125 8.945312 -18.359375 8.40625 -18.171875 C 7.863281 -17.992188 7.378906 -17.742188 6.953125 -17.421875 C 6.523438 -17.097656 6.128906 -16.691406 5.765625 -16.203125 C 5.398438 -15.722656 5.035156 -15.1875 4.671875 -14.59375 L 2.640625 -16.625 C 3.003906 -17.007812 3.382812 -17.394531 3.78125 -17.78125 C 4.1875 -18.175781 4.679688 -18.53125 5.265625 -18.84375 C 5.859375 -19.15625 6.554688 -19.40625 7.359375 -19.59375 C 8.160156 -19.789062 9.132812 -19.890625 10.28125 -19.890625 Z M 14.75 -7.703125 C 14.625 -8.015625 14.4375 -8.378906 14.1875 -8.796875 C 13.9375 -9.210938 13.617188 -9.613281 13.234375 -10 C 12.847656 -10.394531 12.378906 -10.726562 11.828125 -11 C 11.285156 -11.269531 10.640625 -11.40625 9.890625 -11.40625 C 9.128906 -11.40625 8.4375 -11.253906 7.8125 -10.953125 C 7.195312 -10.660156 6.675781 -10.269531 6.25 -9.78125 C 5.820312 -9.300781 5.488281 -8.738281 5.25 -8.09375 C 5.019531 -7.445312 4.90625 -6.773438 4.90625 -6.078125 C 4.90625 -5.242188 5.050781 -4.519531 5.34375 -3.90625 C 5.644531 -3.300781 6.03125 -2.785156 6.5 -2.359375 C 6.96875 -1.929688 7.484375 -1.613281 8.046875 -1.40625 C 8.617188 -1.195312 9.164062 -1.09375 9.6875 -1.09375 C 10.1875 -1.09375 10.6875 -1.179688 11.1875 -1.359375 C 11.695312 -1.546875 12.175781 -1.800781 12.625 -2.125 C 13.082031 -2.445312 13.492188 -2.828125 13.859375 -3.265625 C 14.222656 -3.710938 14.519531 -4.191406 14.75 -4.703125 Z M 14.75 -7.703125 "/></g></g></g><g fill="#f2ede6" fill-opacity="1"><g transform="translate(264.790889, 290.267985)"><g><path d="M 19.390625 0 L 19.390625 -12.609375 C 19.390625 -13.078125 19.347656 -13.71875 19.265625 -14.53125 C 19.191406 -15.351562 18.9375 -16.160156 18.5 -16.953125 C 18.070312 -17.742188 17.390625 -18.429688 16.453125 -19.015625 C 15.523438 -19.597656 14.207031 -19.890625 12.5 -19.890625 C 11.738281 -19.910156 10.890625 -19.757812 9.953125 -19.4375 C 9.023438 -19.113281 8.109375 -18.5 7.203125 -17.59375 L 6.578125 -16.96875 L 6.421875 -16.96875 L 6.421875 -19.453125 L 3.109375 -19.453125 L 3.109375 0 L 6.421875 0 L 6.421875 -12.03125 C 6.421875 -13.039062 6.5625 -13.90625 6.84375 -14.625 C 7.132812 -15.351562 7.523438 -15.960938 8.015625 -16.453125 C 8.503906 -16.953125 9.066406 -17.316406 9.703125 -17.546875 C 10.347656 -17.785156 11.003906 -17.90625 11.671875 -17.90625 C 12.765625 -17.90625 13.609375 -17.691406 14.203125 -17.265625 C 14.804688 -16.835938 15.242188 -16.335938 15.515625 -15.765625 C 15.785156 -15.191406 15.945312 -14.617188 16 -14.046875 C 16.050781 -13.472656 16.078125 -13.0625 16.078125 -12.8125 L 16.078125 0 Z M 19.390625 0 "/></g></g></g><g fill="#f2ede6" fill-opacity="1"><g transform="translate(285.842557, 290.267985)"><g><path d="M 1.171875 -17.90625 L 1.171875 -19.453125 L 4.546875 -19.453125 L 4.546875 -25.453125 L 7.859375 -25.453125 L 7.859375 -19.453125 L 12.578125 -19.453125 L 12.578125 -17.90625 L 7.859375 -17.90625 L 7.859375 -4.984375 C 7.859375 -4.671875 7.867188 -4.3125 7.890625 -3.90625 C 7.921875 -3.507812 8 -3.132812 8.125 -2.78125 C 8.257812 -2.425781 8.460938 -2.132812 8.734375 -1.90625 C 9.003906 -1.675781 9.390625 -1.5625 9.890625 -1.5625 C 10.503906 -1.5625 11.019531 -1.789062 11.4375 -2.25 C 11.851562 -2.71875 12.191406 -3.226562 12.453125 -3.78125 L 14.28125 -1.90625 C 13.007812 -0.632812 11.570312 0 9.96875 0 C 9.289062 0 8.625 -0.113281 7.96875 -0.34375 C 7.320312 -0.582031 6.742188 -0.941406 6.234375 -1.421875 C 5.734375 -1.898438 5.328125 -2.515625 5.015625 -3.265625 C 4.703125 -4.015625 4.546875 -4.898438 4.546875 -5.921875 L 4.546875 -17.90625 Z M 1.171875 -17.90625 "/></g></g></g><g fill="#f2ede6" fill-opacity="1"><g transform="translate(148.135411, 314.01171)"><g><path d="M 8.046875 -0.1875 L 8.140625 -0.1875 C 8.429688 -0.1875 8.578125 -0.328125 8.578125 -0.609375 C 8.578125 -0.703125 8.5625 -0.804688 8.53125 -0.921875 L 6.828125 -5.5 L 3.546875 -5.5 L 1.90625 -1 C 1.863281 -0.894531 1.84375 -0.800781 1.84375 -0.71875 C 1.84375 -0.550781 1.882812 -0.421875 1.96875 -0.328125 C 2.0625 -0.234375 2.160156 -0.1875 2.265625 -0.1875 L 2.359375 -0.1875 L 2.359375 0 L 0.265625 0 L 0.265625 -0.1875 L 0.359375 -0.1875 C 0.523438 -0.1875 0.6875 -0.28125 0.84375 -0.46875 C 1 -0.664062 1.125 -0.898438 1.21875 -1.171875 L 5.53125 -12.65625 L 9.75 -1.28125 C 9.84375 -1.03125 9.96875 -0.785156 10.125 -0.546875 C 10.28125 -0.304688 10.484375 -0.1875 10.734375 -0.1875 L 10.828125 -0.1875 L 10.828125 0 L 8.046875 0 Z M 3.734375 -6.140625 L 6.625 -6.140625 L 5.171875 -10.078125 Z M 3.734375 -6.140625 "/></g></g></g><g fill="#f2ede6" fill-opacity="1"><g transform="translate(159.238579, 314.01171)"><g><path d="M 6.96875 -2.140625 C 6.96875 -1.816406 6.882812 -1.515625 6.71875 -1.234375 C 6.5625 -0.960938 6.335938 -0.722656 6.046875 -0.515625 C 5.765625 -0.304688 5.4375 -0.140625 5.0625 -0.015625 C 4.6875 0.0976562 4.28125 0.15625 3.84375 0.15625 C 3.300781 0.15625 2.859375 0.0820312 2.515625 -0.0625 C 2.179688 -0.207031 1.894531 -0.359375 1.65625 -0.515625 C 1.488281 -0.609375 1.335938 -0.6875 1.203125 -0.75 C 1.066406 -0.820312 0.914062 -0.859375 0.75 -0.859375 L 0.75 -2.296875 L 0.9375 -2.296875 C 0.976562 -2.117188 1.085938 -1.925781 1.265625 -1.71875 C 1.453125 -1.507812 1.671875 -1.316406 1.921875 -1.140625 C 2.179688 -0.972656 2.460938 -0.828125 2.765625 -0.703125 C 3.078125 -0.585938 3.390625 -0.53125 3.703125 -0.53125 C 3.929688 -0.53125 4.164062 -0.550781 4.40625 -0.59375 C 4.644531 -0.644531 4.859375 -0.726562 5.046875 -0.84375 C 5.242188 -0.957031 5.410156 -1.097656 5.546875 -1.265625 C 5.679688 -1.441406 5.75 -1.648438 5.75 -1.890625 C 5.75 -2.117188 5.675781 -2.320312 5.53125 -2.5 C 5.394531 -2.675781 5.21875 -2.828125 5 -2.953125 C 4.789062 -3.085938 4.546875 -3.207031 4.265625 -3.3125 C 3.992188 -3.414062 3.722656 -3.507812 3.453125 -3.59375 C 3.117188 -3.695312 2.785156 -3.8125 2.453125 -3.9375 C 2.117188 -4.0625 1.820312 -4.207031 1.5625 -4.375 C 1.300781 -4.539062 1.085938 -4.742188 0.921875 -4.984375 C 0.753906 -5.234375 0.671875 -5.53125 0.671875 -5.875 C 0.671875 -6.164062 0.722656 -6.441406 0.828125 -6.703125 C 0.941406 -6.960938 1.117188 -7.191406 1.359375 -7.390625 C 1.609375 -7.585938 1.925781 -7.742188 2.3125 -7.859375 C 2.707031 -7.984375 3.179688 -8.046875 3.734375 -8.046875 C 4.222656 -8.046875 4.597656 -8.003906 4.859375 -7.921875 C 5.128906 -7.835938 5.351562 -7.75 5.53125 -7.65625 C 5.644531 -7.59375 5.757812 -7.546875 5.875 -7.515625 C 5.988281 -7.484375 6.113281 -7.46875 6.25 -7.46875 L 6.25 -6.15625 L 6.09375 -6.15625 C 5.875 -6.570312 5.53125 -6.882812 5.0625 -7.09375 C 4.601562 -7.3125 4.128906 -7.421875 3.640625 -7.421875 C 3.316406 -7.421875 3.039062 -7.378906 2.8125 -7.296875 C 2.59375 -7.210938 2.410156 -7.109375 2.265625 -6.984375 C 2.117188 -6.867188 2.007812 -6.734375 1.9375 -6.578125 C 1.875 -6.429688 1.84375 -6.285156 1.84375 -6.140625 C 1.84375 -5.921875 1.898438 -5.734375 2.015625 -5.578125 C 2.140625 -5.429688 2.304688 -5.300781 2.515625 -5.1875 C 2.722656 -5.082031 2.953125 -4.976562 3.203125 -4.875 C 3.460938 -4.769531 3.738281 -4.675781 4.03125 -4.59375 C 4.382812 -4.476562 4.734375 -4.351562 5.078125 -4.21875 C 5.429688 -4.09375 5.742188 -3.9375 6.015625 -3.75 C 6.296875 -3.5625 6.523438 -3.335938 6.703125 -3.078125 C 6.878906 -2.816406 6.96875 -2.503906 6.96875 -2.140625 Z M 6.96875 -2.140625 "/></g></g></g><g fill="#f2ede6" fill-opacity="1"><g transform="translate(166.97316, 314.01171)"><g><path d="M 6.96875 -2.140625 C 6.96875 -1.816406 6.882812 -1.515625 6.71875 -1.234375 C 6.5625 -0.960938 6.335938 -0.722656 6.046875 -0.515625 C 5.765625 -0.304688 5.4375 -0.140625 5.0625 -0.015625 C 4.6875 0.0976562 4.28125 0.15625 3.84375 0.15625 C 3.300781 0.15625 2.859375 0.0820312 2.515625 -0.0625 C 2.179688 -0.207031 1.894531 -0.359375 1.65625 -0.515625 C 1.488281 -0.609375 1.335938 -0.6875 1.203125 -0.75 C 1.066406 -0.820312 0.914062 -0.859375 0.75 -0.859375 L 0.75 -2.296875 L 0.9375 -2.296875 C 0.976562 -2.117188 1.085938 -1.925781 1.265625 -1.71875 C 1.453125 -1.507812 1.671875 -1.316406 1.921875 -1.140625 C 2.179688 -0.972656 2.460938 -0.828125 2.765625 -0.703125 C 3.078125 -0.585938 3.390625 -0.53125 3.703125 -0.53125 C 3.929688 -0.53125 4.164062 -0.550781 4.40625 -0.59375 C 4.644531 -0.644531 4.859375 -0.726562 5.046875 -0.84375 C 5.242188 -0.957031 5.410156 -1.097656 5.546875 -1.265625 C 5.679688 -1.441406 5.75 -1.648438 5.75 -1.890625 C 5.75 -2.117188 5.675781 -2.320312 5.53125 -2.5 C 5.394531 -2.675781 5.21875 -2.828125 5 -2.953125 C 4.789062 -3.085938 4.546875 -3.207031 4.265625 -3.3125 C 3.992188 -3.414062 3.722656 -3.507812 3.453125 -3.59375 C 3.117188 -3.695312 2.785156 -3.8125 2.453125 -3.9375 C 2.117188 -4.0625 1.820312 -4.207031 1.5625 -4.375 C 1.300781 -4.539062 1.085938 -4.742188 0.921875 -4.984375 C 0.753906 -5.234375 0.671875 -5.53125 0.671875 -5.875 C 0.671875 -6.164062 0.722656 -6.441406 0.828125 -6.703125 C 0.941406 -6.960938 1.117188 -7.191406 1.359375 -7.390625 C 1.609375 -7.585938 1.925781 -7.742188 2.3125 -7.859375 C 2.707031 -7.984375 3.179688 -8.046875 3.734375 -8.046875 C 4.222656 -8.046875 4.597656 -8.003906 4.859375 -7.921875 C 5.128906 -7.835938 5.351562 -7.75 5.53125 -7.65625 C 5.644531 -7.59375 5.757812 -7.546875 5.875 -7.515625 C 5.988281 -7.484375 6.113281 -7.46875 6.25 -7.46875 L 6.25 -6.15625 L 6.09375 -6.15625 C 5.875 -6.570312 5.53125 -6.882812 5.0625 -7.09375 C 4.601562 -7.3125 4.128906 -7.421875 3.640625 -7.421875 C 3.316406 -7.421875 3.039062 -7.378906 2.8125 -7.296875 C 2.59375 -7.210938 2.410156 -7.109375 2.265625 -6.984375 C 2.117188 -6.867188 2.007812 -6.734375 1.9375 -6.578125 C 1.875 -6.429688 1.84375 -6.285156 1.84375 -6.140625 C 1.84375 -5.921875 1.898438 -5.734375 2.015625 -5.578125 C 2.140625 -5.429688 2.304688 -5.300781 2.515625 -5.1875 C 2.722656 -5.082031 2.953125 -4.976562 3.203125 -4.875 C 3.460938 -4.769531 3.738281 -4.675781 4.03125 -4.59375 C 4.382812 -4.476562 4.734375 -4.351562 5.078125 -4.21875 C 5.429688 -4.09375 5.742188 -3.9375 6.015625 -3.75 C 6.296875 -3.5625 6.523438 -3.335938 6.703125 -3.078125 C 6.878906 -2.816406 6.96875 -2.503906 6.96875 -2.140625 Z M 6.96875 -2.140625 "/></g></g></g><g fill="#f2ede6" fill-opacity="1"><g transform="translate(174.70774, 314.01171)"><g><path d="M 8.296875 -1.21875 C 8.296875 -1.132812 8.304688 -1.03125 8.328125 -0.90625 C 8.359375 -0.789062 8.394531 -0.679688 8.4375 -0.578125 C 8.488281 -0.472656 8.550781 -0.378906 8.625 -0.296875 C 8.695312 -0.222656 8.785156 -0.1875 8.890625 -0.1875 L 8.890625 0 L 7.0625 0 L 7.0625 -1.03125 C 6.875 -0.757812 6.597656 -0.488281 6.234375 -0.21875 C 5.867188 0.0390625 5.394531 0.171875 4.8125 0.171875 C 4.09375 0.171875 3.519531 0.046875 3.09375 -0.203125 C 2.664062 -0.453125 2.335938 -0.769531 2.109375 -1.15625 C 1.878906 -1.550781 1.734375 -1.976562 1.671875 -2.4375 C 1.609375 -2.894531 1.578125 -3.328125 1.578125 -3.734375 L 1.578125 -6.421875 C 1.578125 -6.535156 1.570312 -6.644531 1.5625 -6.75 C 1.5625 -6.851562 1.539062 -6.945312 1.5 -7.03125 C 1.457031 -7.125 1.390625 -7.195312 1.296875 -7.25 C 1.210938 -7.3125 1.085938 -7.34375 0.921875 -7.34375 L 0.921875 -7.515625 L 2.828125 -8.109375 L 2.828125 -3.3125 C 2.828125 -2.363281 3.03125 -1.660156 3.4375 -1.203125 C 3.851562 -0.753906 4.363281 -0.53125 4.96875 -0.53125 C 5.289062 -0.53125 5.582031 -0.597656 5.84375 -0.734375 C 6.101562 -0.878906 6.320312 -1.050781 6.5 -1.25 C 6.6875 -1.457031 6.828125 -1.664062 6.921875 -1.875 C 7.015625 -2.09375 7.0625 -2.269531 7.0625 -2.40625 L 7.0625 -6.421875 C 7.0625 -6.535156 7.054688 -6.644531 7.046875 -6.75 C 7.046875 -6.851562 7.019531 -6.945312 6.96875 -7.03125 C 6.925781 -7.125 6.859375 -7.195312 6.765625 -7.25 C 6.679688 -7.3125 6.5625 -7.34375 6.40625 -7.34375 L 6.40625 -7.515625 L 8.296875 -8.109375 Z M 8.296875 -1.21875 "/></g></g></g><g fill="#f2ede6" fill-opacity="1"><g transform="translate(184.568869, 314.01171)"><g><path d="M 5.4375 -6.53125 C 5.289062 -6.78125 5.132812 -6.9375 4.96875 -7 C 4.800781 -7.0625 4.613281 -7.09375 4.40625 -7.09375 C 4.269531 -7.09375 4.125 -7.0625 3.96875 -7 C 3.8125 -6.9375 3.65625 -6.851562 3.5 -6.75 C 3.351562 -6.65625 3.207031 -6.546875 3.0625 -6.421875 C 2.914062 -6.304688 2.789062 -6.195312 2.6875 -6.09375 L 2.6875 -1.203125 C 2.6875 -1.097656 2.695312 -0.988281 2.71875 -0.875 C 2.75 -0.769531 2.789062 -0.660156 2.84375 -0.546875 C 2.90625 -0.441406 2.96875 -0.351562 3.03125 -0.28125 C 3.101562 -0.21875 3.191406 -0.1875 3.296875 -0.1875 L 3.296875 0 L 0.84375 0 L 0.84375 -0.1875 C 0.9375 -0.1875 1.019531 -0.21875 1.09375 -0.28125 C 1.164062 -0.351562 1.226562 -0.441406 1.28125 -0.546875 C 1.34375 -0.660156 1.382812 -0.769531 1.40625 -0.875 C 1.4375 -0.988281 1.453125 -1.097656 1.453125 -1.203125 L 1.453125 -6.453125 C 1.453125 -6.628906 1.394531 -6.804688 1.28125 -6.984375 C 1.164062 -7.160156 1.003906 -7.273438 0.796875 -7.328125 L 0.796875 -7.46875 L 2.6875 -8.046875 L 2.6875 -6.90625 C 2.800781 -7.039062 2.921875 -7.175781 3.046875 -7.3125 C 3.171875 -7.445312 3.3125 -7.566406 3.46875 -7.671875 C 3.625 -7.773438 3.796875 -7.863281 3.984375 -7.9375 C 4.179688 -8.007812 4.40625 -8.046875 4.65625 -8.046875 C 4.832031 -8.046875 5.054688 -8.003906 5.328125 -7.921875 C 5.609375 -7.847656 5.832031 -7.769531 6 -7.6875 Z M 5.4375 -6.53125 "/></g></g></g><g fill="#f2ede6" fill-opacity="1"><g transform="translate(190.910845, 314.01171)"><g><path d="M 5.8125 0 L 5.8125 -0.953125 L 5.71875 -0.859375 C 5.40625 -0.546875 5.046875 -0.300781 4.640625 -0.125 C 4.234375 0.0390625 3.738281 0.125 3.15625 0.125 C 2.71875 0.125 2.34375 0.078125 2.03125 -0.015625 C 1.71875 -0.117188 1.457031 -0.257812 1.25 -0.4375 C 1.050781 -0.625 0.90625 -0.835938 0.8125 -1.078125 C 0.71875 -1.316406 0.671875 -1.566406 0.671875 -1.828125 C 0.671875 -2.253906 0.785156 -2.628906 1.015625 -2.953125 C 1.253906 -3.285156 1.59375 -3.578125 2.03125 -3.828125 C 2.46875 -4.078125 3.003906 -4.300781 3.640625 -4.5 C 4.273438 -4.707031 5 -4.914062 5.8125 -5.125 C 5.789062 -5.613281 5.691406 -6.007812 5.515625 -6.3125 C 5.335938 -6.613281 5.128906 -6.847656 4.890625 -7.015625 C 4.648438 -7.179688 4.398438 -7.289062 4.140625 -7.34375 C 3.878906 -7.40625 3.65625 -7.4375 3.46875 -7.4375 C 3.132812 -7.4375 2.84375 -7.382812 2.59375 -7.28125 C 2.351562 -7.1875 2.140625 -7.0625 1.953125 -6.90625 C 1.773438 -6.75 1.625 -6.578125 1.5 -6.390625 C 1.375 -6.210938 1.273438 -6.039062 1.203125 -5.875 L 1.03125 -5.875 L 1.03125 -7.25 C 1.132812 -7.257812 1.226562 -7.289062 1.3125 -7.34375 C 1.40625 -7.394531 1.515625 -7.445312 1.640625 -7.5 C 1.828125 -7.570312 2.082031 -7.679688 2.40625 -7.828125 C 2.738281 -7.972656 3.195312 -8.046875 3.78125 -8.046875 C 4.46875 -8.046875 5.023438 -7.957031 5.453125 -7.78125 C 5.878906 -7.601562 6.207031 -7.367188 6.4375 -7.078125 C 6.675781 -6.785156 6.832031 -6.453125 6.90625 -6.078125 C 6.976562 -5.710938 7.015625 -5.335938 7.015625 -4.953125 L 7.015625 -1.21875 C 7.015625 -0.96875 7.070312 -0.734375 7.1875 -0.515625 C 7.300781 -0.296875 7.453125 -0.1875 7.640625 -0.1875 L 7.640625 0 Z M 5.8125 -1.78125 L 5.8125 -4.484375 L 5.625 -4.4375 C 5.320312 -4.363281 4.953125 -4.265625 4.515625 -4.140625 C 4.085938 -4.015625 3.679688 -3.847656 3.296875 -3.640625 C 2.910156 -3.441406 2.578125 -3.203125 2.296875 -2.921875 C 2.023438 -2.648438 1.890625 -2.335938 1.890625 -1.984375 C 1.890625 -1.578125 2.050781 -1.238281 2.375 -0.96875 C 2.695312 -0.707031 3.125 -0.578125 3.65625 -0.578125 C 4.070312 -0.578125 4.4375 -0.664062 4.75 -0.84375 C 5.0625 -1.03125 5.347656 -1.269531 5.609375 -1.5625 Z M 5.8125 -1.78125 "/></g></g></g><g fill="#f2ede6" fill-opacity="1"><g transform="translate(199.511093, 314.01171)"><g><path d="M 8.421875 -1.21875 C 8.421875 -1.125 8.429688 -1.015625 8.453125 -0.890625 C 8.472656 -0.773438 8.507812 -0.664062 8.5625 -0.5625 C 8.625 -0.46875 8.691406 -0.378906 8.765625 -0.296875 C 8.835938 -0.222656 8.921875 -0.1875 9.015625 -0.1875 L 9.015625 0 L 6.59375 0 L 6.59375 -0.1875 C 6.675781 -0.1875 6.753906 -0.222656 6.828125 -0.296875 C 6.910156 -0.378906 6.976562 -0.46875 7.03125 -0.5625 C 7.082031 -0.664062 7.117188 -0.773438 7.140625 -0.890625 C 7.171875 -1.015625 7.1875 -1.125 7.1875 -1.21875 L 7.1875 -4.71875 C 7.1875 -5.175781 7.125 -5.570312 7 -5.90625 C 6.875 -6.25 6.703125 -6.53125 6.484375 -6.75 C 6.273438 -6.976562 6.035156 -7.144531 5.765625 -7.25 C 5.492188 -7.363281 5.222656 -7.421875 4.953125 -7.421875 C 4.671875 -7.421875 4.394531 -7.363281 4.125 -7.25 C 3.863281 -7.132812 3.628906 -6.984375 3.421875 -6.796875 C 3.210938 -6.617188 3.039062 -6.40625 2.90625 -6.15625 C 2.78125 -5.914062 2.71875 -5.664062 2.71875 -5.40625 L 2.71875 -1.21875 C 2.71875 -1.125 2.726562 -1.015625 2.75 -0.890625 C 2.769531 -0.773438 2.804688 -0.664062 2.859375 -0.5625 C 2.921875 -0.46875 2.984375 -0.378906 3.046875 -0.296875 C 3.117188 -0.222656 3.207031 -0.1875 3.3125 -0.1875 L 3.3125 0 L 0.859375 0 L 0.859375 -0.1875 C 0.953125 -0.1875 1.035156 -0.222656 1.109375 -0.296875 C 1.179688 -0.378906 1.242188 -0.46875 1.296875 -0.5625 C 1.359375 -0.664062 1.398438 -0.773438 1.421875 -0.890625 C 1.453125 -1.015625 1.46875 -1.125 1.46875 -1.21875 L 1.46875 -6.421875 C 1.46875 -6.628906 1.4375 -6.832031 1.375 -7.03125 C 1.3125 -7.226562 1.128906 -7.332031 0.828125 -7.34375 L 0.828125 -7.515625 L 2.71875 -8.109375 L 2.71875 -7.078125 C 2.800781 -7.179688 2.910156 -7.289062 3.046875 -7.40625 C 3.179688 -7.53125 3.347656 -7.644531 3.546875 -7.75 C 3.742188 -7.851562 3.96875 -7.9375 4.21875 -8 C 4.476562 -8.070312 4.785156 -8.109375 5.140625 -8.109375 C 5.734375 -8.109375 6.234375 -8.007812 6.640625 -7.8125 C 7.054688 -7.613281 7.394531 -7.351562 7.65625 -7.03125 C 7.925781 -6.707031 8.117188 -6.351562 8.234375 -5.96875 C 8.359375 -5.59375 8.421875 -5.222656 8.421875 -4.859375 Z M 8.421875 -1.21875 "/></g></g></g><g fill="#f2ede6" fill-opacity="1"><g transform="translate(209.522774, 314.01171)"><g><path d="M 7.796875 -0.671875 C 7.691406 -0.671875 7.59375 -0.648438 7.5 -0.609375 C 7.414062 -0.566406 7.320312 -0.515625 7.21875 -0.453125 C 7 -0.328125 6.722656 -0.195312 6.390625 -0.0625 C 6.066406 0.0625 5.644531 0.125 5.125 0.125 C 4.476562 0.125 3.878906 0.0234375 3.328125 -0.171875 C 2.785156 -0.378906 2.316406 -0.664062 1.921875 -1.03125 C 1.535156 -1.40625 1.226562 -1.84375 1 -2.34375 C 0.78125 -2.84375 0.671875 -3.378906 0.671875 -3.953125 C 0.671875 -4.492188 0.769531 -5.007812 0.96875 -5.5 C 1.164062 -5.988281 1.445312 -6.421875 1.8125 -6.796875 C 2.175781 -7.171875 2.625 -7.472656 3.15625 -7.703125 C 3.6875 -7.929688 4.289062 -8.046875 4.96875 -8.046875 C 5.4375 -8.046875 5.8125 -7.988281 6.09375 -7.875 C 6.382812 -7.769531 6.628906 -7.664062 6.828125 -7.5625 C 6.941406 -7.5 7.050781 -7.445312 7.15625 -7.40625 C 7.269531 -7.375 7.382812 -7.359375 7.5 -7.359375 L 7.5 -5.9375 L 7.3125 -5.9375 C 7.25 -6.164062 7.132812 -6.367188 6.96875 -6.546875 C 6.800781 -6.734375 6.609375 -6.890625 6.390625 -7.015625 C 6.179688 -7.148438 5.953125 -7.25 5.703125 -7.3125 C 5.453125 -7.375 5.207031 -7.40625 4.96875 -7.40625 C 4.457031 -7.40625 4.003906 -7.3125 3.609375 -7.125 C 3.222656 -6.945312 2.90625 -6.707031 2.65625 -6.40625 C 2.40625 -6.113281 2.21875 -5.78125 2.09375 -5.40625 C 1.96875 -5.03125 1.90625 -4.640625 1.90625 -4.234375 C 1.90625 -3.773438 1.976562 -3.320312 2.125 -2.875 C 2.28125 -2.425781 2.5 -2.023438 2.78125 -1.671875 C 3.0625 -1.328125 3.398438 -1.046875 3.796875 -0.828125 C 4.203125 -0.617188 4.65625 -0.515625 5.15625 -0.515625 C 5.507812 -0.515625 5.832031 -0.5625 6.125 -0.65625 C 6.425781 -0.757812 6.675781 -0.890625 6.875 -1.046875 C 7.082031 -1.210938 7.25 -1.394531 7.375 -1.59375 C 7.5 -1.789062 7.578125 -1.972656 7.609375 -2.140625 L 7.796875 -2.140625 Z M 7.796875 -0.671875 "/></g></g></g><g fill="#f2ede6" fill-opacity="1"><g transform="translate(217.727837, 314.01171)"><g><path d="M 1.890625 -3.796875 C 1.929688 -3.359375 2.035156 -2.941406 2.203125 -2.546875 C 2.367188 -2.148438 2.582031 -1.800781 2.84375 -1.5 C 3.113281 -1.195312 3.441406 -0.957031 3.828125 -0.78125 C 4.222656 -0.601562 4.679688 -0.515625 5.203125 -0.515625 C 5.472656 -0.515625 5.757812 -0.550781 6.0625 -0.625 C 6.375 -0.707031 6.660156 -0.820312 6.921875 -0.96875 C 7.191406 -1.125 7.429688 -1.3125 7.640625 -1.53125 C 7.847656 -1.75 7.988281 -2 8.0625 -2.28125 L 8.234375 -2.28125 L 8.234375 -0.859375 C 8.148438 -0.859375 8.0625 -0.832031 7.96875 -0.78125 C 7.875 -0.738281 7.765625 -0.679688 7.640625 -0.609375 C 7.390625 -0.453125 7.050781 -0.289062 6.625 -0.125 C 6.195312 0.0390625 5.632812 0.125 4.9375 0.125 C 4.363281 0.125 3.820312 0.046875 3.3125 -0.109375 C 2.8125 -0.273438 2.363281 -0.523438 1.96875 -0.859375 C 1.582031 -1.203125 1.273438 -1.632812 1.046875 -2.15625 C 0.816406 -2.6875 0.703125 -3.316406 0.703125 -4.046875 C 0.703125 -4.515625 0.78125 -4.984375 0.9375 -5.453125 C 1.09375 -5.929688 1.328125 -6.363281 1.640625 -6.75 C 1.960938 -7.132812 2.375 -7.445312 2.875 -7.6875 C 3.382812 -7.925781 3.988281 -8.046875 4.6875 -8.046875 C 5.3125 -8.046875 5.859375 -7.9375 6.328125 -7.71875 C 6.804688 -7.507812 7.195312 -7.210938 7.5 -6.828125 C 7.8125 -6.453125 8.039062 -6.003906 8.1875 -5.484375 C 8.34375 -4.972656 8.421875 -4.410156 8.421875 -3.796875 Z M 4.609375 -7.421875 C 4.171875 -7.421875 3.789062 -7.332031 3.46875 -7.15625 C 3.15625 -6.976562 2.882812 -6.75 2.65625 -6.46875 C 2.425781 -6.195312 2.25 -5.882812 2.125 -5.53125 C 2 -5.1875 1.921875 -4.835938 1.890625 -4.484375 L 7.25 -4.484375 C 7.238281 -4.847656 7.171875 -5.203125 7.046875 -5.546875 C 6.929688 -5.898438 6.765625 -6.210938 6.546875 -6.484375 C 6.335938 -6.765625 6.066406 -6.988281 5.734375 -7.15625 C 5.410156 -7.332031 5.035156 -7.421875 4.609375 -7.421875 Z M 4.609375 -7.421875 "/></g></g></g></svg>